# xmcd
#
# Track frame offsets:
#	150
#	15367
#	28402
#	40204
#	57115
#	68012
#	80355
#	92948
#	105773
#	119108
#
# Disc length: 1739 seconds
#
# Revision: 1
# Processed by: cddbd v1.5.2PL0 Copyright (c) Steve Scherf et al.
# Submitted via: audiograbber 1.83.01
#
DISCID=7906c90a
DTITLE=Glen Campbell - Houston (I'm Comin' to See You)
DYEAR=1974
DGENRE=Country
TTITLE0=Houston (I'm Comin' to See You)
TTITLE1=Too Many Mornings
TTITLE2=Lovesick Blues
TTITLE3=Yesterday, When I Was Young
TTITLE4=Lovelight
TTITLE5=No Love at All
TTITLE6=Honestly Loved
TTITLE7=Bonaparte's Retreat
TTITLE8=If I Were Loving You
TTITLE9=A Beautiful Love Song
EXTD=
EXTT0=
EXTT1=
EXTT2=
EXTT3=
EXTT4=
EXTT5=
EXTT6=
EXTT7=
EXTT8=
EXTT9=
PLAYORDER=
